# Wavefront OBJ file automatically generated by Tiled2Unity

# Vertices (Count = 121)
v -144 -16 0
v -160 -16 0
v -160 0 0
v -144 0 0
v -128 -16 0
v -128 0 0
v -112 -16 0
v -112 0 0
v -96 -16 0
v -96 0 0
v -80 -16 0
v -80 0 0
v -64 -16 0
v -64 0 0
v -48 -16 0
v -48 0 0
v -32 -16 0
v -32 0 0
v -16 -16 0
v -16 0 0
v 0 -16 0
v 0 0 0
v -144 -32 0
v -160 -32 0
v -128 -32 0
v -112 -32 0
v -96 -32 0
v -80 -32 0
v -64 -32 0
v -48 -32 0
v -32 -32 0
v -16 -32 0
v 0 -32 0
v -144 -48 0
v -160 -48 0
v -128 -48 0
v -112 -48 0
v -96 -48 0
v -80 -48 0
v -64 -48 0
v -48 -48 0
v -32 -48 0
v -16 -48 0
v 0 -48 0
v -144 -64 0
v -160 -64 0
v -128 -64 0
v -112 -64 0
v -96 -64 0
v -80 -64 0
v -64 -64 0
v -48 -64 0
v -32 -64 0
v -16 -64 0
v 0 -64 0
v -144 -80 0
v -160 -80 0
v -128 -80 0
v -112 -80 0
v -96 -80 0
v -80 -80 0
v -64 -80 0
v -48 -80 0
v -32 -80 0
v -16 -80 0
v 0 -80 0
v -144 -96 0
v -160 -96 0
v -128 -96 0
v -112 -96 0
v -96 -96 0
v -80 -96 0
v -64 -96 0
v -48 -96 0
v -32 -96 0
v -16 -96 0
v 0 -96 0
v -144 -112 0
v -160 -112 0
v -128 -112 0
v -112 -112 0
v -96 -112 0
v -80 -112 0
v -64 -112 0
v -48 -112 0
v -32 -112 0
v -16 -112 0
v 0 -112 0
v -144 -128 0
v -160 -128 0
v -128 -128 0
v -112 -128 0
v -96 -128 0
v -80 -128 0
v -64 -128 0
v -48 -128 0
v -32 -128 0
v -16 -128 0
v 0 -128 0
v -144 -144 0
v -160 -144 0
v -128 -144 0
v -112 -144 0
v -96 -144 0
v -80 -144 0
v -64 -144 0
v -48 -144 0
v -32 -144 0
v -16 -144 0
v 0 -144 0
v -144 -160 0
v -160 -160 0
v -128 -160 0
v -112 -160 0
v -96 -160 0
v -80 -160 0
v -64 -160 0
v -48 -160 0
v -32 -160 0
v -16 -160 0
v 0 -160 0

# Texture cooridinates (Count = 36)
vt 0.8606592 0.06476086
vt 0.8769441 0.06476086
vt 0.8769441 0.09493494
vt 0.8606592 0.09493494
vt 0.8430973 0.06476086
vt 0.859382 0.06476086
vt 0.859382 0.09493494
vt 0.8430973 0.09493494
vt 0.8255353 0.06476086
vt 0.8418201 0.06476086
vt 0.8418201 0.09493494
vt 0.8255353 0.09493494
vt 0.8606592 0.03244144
vt 0.8769441 0.03244144
vt 0.8769441 0.06261557
vt 0.8606592 0.06261557
vt 0.8430973 0.03244144
vt 0.859382 0.03244144
vt 0.859382 0.06261557
vt 0.8430973 0.06261557
vt 0.8255353 0.03244144
vt 0.8418201 0.03244144
vt 0.8418201 0.06261557
vt 0.8255353 0.06261557
vt 0.8606592 0.0001220703
vt 0.8769441 0.0001220703
vt 0.8769441 0.03029621
vt 0.8606592 0.03029621
vt 0.8430973 0.0001220703
vt 0.859382 0.0001220703
vt 0.859382 0.03029621
vt 0.8430973 0.03029621
vt 0.8255353 0.0001220703
vt 0.8418201 0.0001220703
vt 0.8418201 0.03029621
vt 0.8255353 0.03029621

# Normal
vn 0 0 -1

# Groups (Count = 1)

g mesh_0001
f 1/1/1 2/2/1 3/3/1 4/4/1
f 5/5/1 1/6/1 4/7/1 6/8/1
f 7/5/1 5/6/1 6/7/1 8/8/1
f 9/5/1 7/6/1 8/7/1 10/8/1
f 11/5/1 9/6/1 10/7/1 12/8/1
f 13/5/1 11/6/1 12/7/1 14/8/1
f 15/5/1 13/6/1 14/7/1 16/8/1
f 17/5/1 15/6/1 16/7/1 18/8/1
f 19/5/1 17/6/1 18/7/1 20/8/1
f 21/9/1 19/10/1 20/11/1 22/12/1
f 23/13/1 24/14/1 2/15/1 1/16/1
f 25/17/1 23/18/1 1/19/1 5/20/1
f 26/17/1 25/18/1 5/19/1 7/20/1
f 27/17/1 26/18/1 7/19/1 9/20/1
f 28/17/1 27/18/1 9/19/1 11/20/1
f 29/17/1 28/18/1 11/19/1 13/20/1
f 30/17/1 29/18/1 13/19/1 15/20/1
f 31/17/1 30/18/1 15/19/1 17/20/1
f 32/17/1 31/18/1 17/19/1 19/20/1
f 33/21/1 32/22/1 19/23/1 21/24/1
f 34/13/1 35/14/1 24/15/1 23/16/1
f 36/17/1 34/18/1 23/19/1 25/20/1
f 37/17/1 36/18/1 25/19/1 26/20/1
f 38/17/1 37/18/1 26/19/1 27/20/1
f 39/17/1 38/18/1 27/19/1 28/20/1
f 40/17/1 39/18/1 28/19/1 29/20/1
f 41/17/1 40/18/1 29/19/1 30/20/1
f 42/17/1 41/18/1 30/19/1 31/20/1
f 43/17/1 42/18/1 31/19/1 32/20/1
f 44/21/1 43/22/1 32/23/1 33/24/1
f 45/13/1 46/14/1 35/15/1 34/16/1
f 47/17/1 45/18/1 34/19/1 36/20/1
f 48/17/1 47/18/1 36/19/1 37/20/1
f 49/17/1 48/18/1 37/19/1 38/20/1
f 50/17/1 49/18/1 38/19/1 39/20/1
f 51/17/1 50/18/1 39/19/1 40/20/1
f 52/17/1 51/18/1 40/19/1 41/20/1
f 53/17/1 52/18/1 41/19/1 42/20/1
f 54/17/1 53/18/1 42/19/1 43/20/1
f 55/21/1 54/22/1 43/23/1 44/24/1
f 56/13/1 57/14/1 46/15/1 45/16/1
f 58/17/1 56/18/1 45/19/1 47/20/1
f 59/17/1 58/18/1 47/19/1 48/20/1
f 60/17/1 59/18/1 48/19/1 49/20/1
f 61/17/1 60/18/1 49/19/1 50/20/1
f 62/17/1 61/18/1 50/19/1 51/20/1
f 63/17/1 62/18/1 51/19/1 52/20/1
f 64/17/1 63/18/1 52/19/1 53/20/1
f 65/17/1 64/18/1 53/19/1 54/20/1
f 66/21/1 65/22/1 54/23/1 55/24/1
f 67/13/1 68/14/1 57/15/1 56/16/1
f 69/17/1 67/18/1 56/19/1 58/20/1
f 70/17/1 69/18/1 58/19/1 59/20/1
f 71/17/1 70/18/1 59/19/1 60/20/1
f 72/17/1 71/18/1 60/19/1 61/20/1
f 73/17/1 72/18/1 61/19/1 62/20/1
f 74/17/1 73/18/1 62/19/1 63/20/1
f 75/17/1 74/18/1 63/19/1 64/20/1
f 76/17/1 75/18/1 64/19/1 65/20/1
f 77/21/1 76/22/1 65/23/1 66/24/1
f 78/13/1 79/14/1 68/15/1 67/16/1
f 80/17/1 78/18/1 67/19/1 69/20/1
f 81/17/1 80/18/1 69/19/1 70/20/1
f 82/17/1 81/18/1 70/19/1 71/20/1
f 83/17/1 82/18/1 71/19/1 72/20/1
f 84/17/1 83/18/1 72/19/1 73/20/1
f 85/17/1 84/18/1 73/19/1 74/20/1
f 86/17/1 85/18/1 74/19/1 75/20/1
f 87/17/1 86/18/1 75/19/1 76/20/1
f 88/21/1 87/22/1 76/23/1 77/24/1
f 89/13/1 90/14/1 79/15/1 78/16/1
f 91/17/1 89/18/1 78/19/1 80/20/1
f 92/17/1 91/18/1 80/19/1 81/20/1
f 93/17/1 92/18/1 81/19/1 82/20/1
f 94/17/1 93/18/1 82/19/1 83/20/1
f 95/17/1 94/18/1 83/19/1 84/20/1
f 96/17/1 95/18/1 84/19/1 85/20/1
f 97/17/1 96/18/1 85/19/1 86/20/1
f 98/17/1 97/18/1 86/19/1 87/20/1
f 99/21/1 98/22/1 87/23/1 88/24/1
f 100/13/1 101/14/1 90/15/1 89/16/1
f 102/17/1 100/18/1 89/19/1 91/20/1
f 103/17/1 102/18/1 91/19/1 92/20/1
f 104/17/1 103/18/1 92/19/1 93/20/1
f 105/17/1 104/18/1 93/19/1 94/20/1
f 106/17/1 105/18/1 94/19/1 95/20/1
f 107/17/1 106/18/1 95/19/1 96/20/1
f 108/17/1 107/18/1 96/19/1 97/20/1
f 109/17/1 108/18/1 97/19/1 98/20/1
f 110/21/1 109/22/1 98/23/1 99/24/1
f 111/25/1 112/26/1 101/27/1 100/28/1
f 113/29/1 111/30/1 100/31/1 102/32/1
f 114/29/1 113/30/1 102/31/1 103/32/1
f 115/29/1 114/30/1 103/31/1 104/32/1
f 116/17/1 115/18/1 104/19/1 105/20/1
f 117/17/1 116/18/1 105/19/1 106/20/1
f 118/29/1 117/30/1 106/31/1 107/32/1
f 119/29/1 118/30/1 107/31/1 108/32/1
f 120/29/1 119/30/1 108/31/1 109/32/1
f 121/33/1 120/34/1 109/35/1 110/36/1

